<svg xmlns="http://www.w3.org/2000/svg" xmlns:xlink="http://www.w3.org/1999/xlink" width="500" zoomAndPan="magnify" viewBox="0 0 375 374.999991" height="500" preserveAspectRatio="xMidYMid meet" version="1.2"><defs><clipPath id="4c859633f3"><path d="M 30.117188 77 L 344.523438 77 L 344.523438 350.882812 L 30.117188 350.882812 Z M 30.117188 77 "/></clipPath></defs><g id="4bed55e400"><g clip-rule="nonzero" clip-path="url(#4c859633f3)"><path style=" stroke:none;fill-rule:nonzero;fill:#747679;fill-opacity:1;" d="M 344.523438 275.886719 L 344.523438 263.796875 C 324.449219 263.71875 304.378906 263.964844 284.308594 263.65625 C 267.960938 242.351562 252.019531 220.429688 232.148438 202.203125 C 219.179688 191.21875 203.496094 179.488281 185.457031 182.058594 C 158.632812 183.925781 137.496094 203.75 123.097656 224.960938 C 104.511719 200.683594 85.953125 176.382812 67.085938 152.320312 C 101.730469 156.511719 136.40625 160.652344 171.277344 162.417969 C 195.460938 163.671875 219.585938 165.65625 243.734375 167.410156 C 255.675781 167.6875 268.429688 169.324219 279.523438 163.804688 C 287.609375 160.21875 292.035156 151.109375 291.78125 142.554688 C 285.863281 126.734375 266.503906 124.417969 251.914062 126.132812 C 191.632812 127.058594 131.890625 136.15625 71.785156 139.941406 C 58.871094 141.558594 45.242188 139.960938 33.039062 145.242188 C 39.828125 148.46875 49.21875 147.898438 53.527344 154.992188 C 74.28125 182.308594 95.4375 209.324219 116.199219 236.640625 C 111.578125 246 106.835938 255.300781 102.199219 264.652344 C 69.476562 264.492188 36.710938 265.109375 4.015625 264.367188 C -2.789062 257.984375 -7.347656 249.605469 -13.421875 242.554688 C -30.332031 221.835938 -47.515625 199.589844 -72.1875 187.734375 C -83.777344 181.695312 -97.527344 183.484375 -109.570312 187.070312 C -130.613281 194.152344 -146.375 211.148438 -158.347656 229.203125 C -178.609375 203.542969 -198.632812 177.695312 -218.941406 152.074219 C -193.65625 154.851562 -168.421875 158.082031 -143.0625 160.144531 C -116.964844 162.417969 -90.757812 163.070312 -64.65625 165.316406 C -46.417969 166.367188 -28.152344 168.8125 -9.863281 167.34375 C -1.121094 166.652344 7.800781 161.953125 11.550781 153.722656 C 13.539062 149.058594 15.320312 143.042969 11.757812 138.65625 C 6.269531 129.996094 -4.214844 126.351562 -14.027344 125.886719 C -80.816406 126.011719 -147.054688 135.949219 -213.636719 140.097656 C -226.101562 141.605469 -239.285156 140.054688 -251.023438 145.292969 C -246.277344 146.964844 -241.449219 148.382812 -236.574219 149.617188 C -212.996094 180.296875 -188.855469 210.550781 -165.078125 241.078125 C -169.203125 249.054688 -172.582031 257.464844 -177.464844 265.015625 C -202.027344 266.128906 -279.726562 79.828125 -285.160156 92.214844 C -286.441406 95.132812 -299.316406 88.671875 -302.910156 80.097656 C -309.941406 63.3125 -321.289062 140.597656 -285.40625 147.394531 C -269.941406 150.324219 -297.183594 155.386719 -302.792969 161.347656 C -321.125 180.824219 -274.851562 186.882812 -289.832031 192.957031 C -317.148438 204.027344 -227.628906 224.285156 -275.699219 220.214844 C -326.75 214.425781 -306.070312 254.746094 -312.710938 277.5 C -271.746094 277.71875 -177.875 277.070312 -136.933594 277.808594 C -132.003906 282.132812 -128.582031 287.882812 -124.417969 292.914062 C -89.503906 337.320312 -54.796875 381.898438 -19.773438 426.214844 L -9.773438 426.214844 C -8.992188 425.386719 -7.429688 423.734375 -6.648438 422.90625 C -44.417969 374.277344 -82.578125 325.929688 -120.582031 277.472656 C -89.765625 277.246094 -58.925781 278.171875 -28.132812 276.765625 C 30.25 276.761719 88.648438 276.890625 147.023438 276.5 C 185.332031 326.464844 223.855469 376.261719 262.183594 426.207031 L 272.175781 426.207031 C 273.027344 425.398438 274.722656 423.773438 275.570312 422.964844 C 237.96875 374.066406 200.375 325.144531 162.65625 276.335938 C 223.285156 276.722656 283.898438 275.929688 344.523438 275.886719 Z M -129.136719 265.210938 C -134.027344 261.53125 -137.105469 256.027344 -140.984375 251.386719 C -127.683594 237.988281 -112.875 225.359375 -94.953125 218.695312 C -76.730469 229.496094 -65.035156 247.84375 -54.097656 265.398438 C -79.109375 265.273438 -104.136719 265.691406 -129.136719 265.210938 Z M 124.253906 264.261719 C 126.839844 261.898438 129.398438 259.507812 131.941406 257.101562 C 133.882812 259.496094 135.828125 261.894531 137.8125 264.265625 C 133.292969 264.257812 128.769531 264.261719 124.253906 264.261719 Z M 153.902344 263.988281 C 148.675781 259.179688 145.023438 252.984375 140.707031 247.410156 C 153.90625 235.355469 167.65625 222.496094 185.050781 217.074219 C 204.070312 227.28125 215.125 246.960938 226.792969 264.324219 C 202.496094 264 178.171875 264.71875 153.902344 263.988281 Z M 153.902344 263.988281 "/></g><path style=" stroke:none;fill-rule:nonzero;fill:#747679;fill-opacity:1;" d="M 270.660156 68.304688 C 270.660156 69.75 270.589844 71.1875 270.449219 72.625 C 270.308594 74.0625 270.09375 75.488281 269.8125 76.902344 C 269.53125 78.316406 269.183594 79.714844 268.761719 81.097656 C 268.34375 82.480469 267.859375 83.835938 267.304688 85.167969 C 266.753906 86.503906 266.136719 87.804688 265.457031 89.078125 C 264.777344 90.351562 264.035156 91.589844 263.234375 92.789062 C 262.429688 93.988281 261.574219 95.144531 260.65625 96.261719 C 259.742188 97.378906 258.773438 98.445312 257.753906 99.464844 C 256.734375 100.488281 255.664062 101.453125 254.546875 102.371094 C 253.433594 103.285156 252.273438 104.144531 251.074219 104.945312 C 249.875 105.75 248.636719 106.488281 247.367188 107.171875 C 246.09375 107.851562 244.789062 108.464844 243.457031 109.019531 C 242.121094 109.570312 240.765625 110.058594 239.382812 110.476562 C 238.003906 110.894531 236.605469 111.246094 235.1875 111.527344 C 233.773438 111.808594 232.347656 112.019531 230.910156 112.160156 C 229.476562 112.304688 228.035156 112.375 226.59375 112.375 C 225.148438 112.375 223.707031 112.304688 222.273438 112.160156 C 220.835938 112.019531 219.410156 111.808594 217.996094 111.527344 C 216.578125 111.246094 215.179688 110.894531 213.800781 110.476562 C 212.417969 110.058594 211.0625 109.570312 209.726562 109.019531 C 208.394531 108.464844 207.089844 107.851562 205.816406 107.171875 C 204.546875 106.488281 203.308594 105.75 202.109375 104.945312 C 200.910156 104.144531 199.75 103.285156 198.636719 102.371094 C 197.519531 101.453125 196.453125 100.488281 195.429688 99.464844 C 194.410156 98.445312 193.441406 97.378906 192.527344 96.261719 C 191.609375 95.144531 190.753906 93.988281 189.949219 92.789062 C 189.148438 91.589844 188.40625 90.351562 187.726562 89.078125 C 187.046875 87.804688 186.429688 86.503906 185.878906 85.167969 C 185.324219 83.835938 184.839844 82.480469 184.421875 81.097656 C 184.003906 79.714844 183.652344 78.316406 183.371094 76.902344 C 183.089844 75.488281 182.878906 74.0625 182.734375 72.625 C 182.59375 71.1875 182.523438 69.75 182.523438 68.304688 C 182.523438 66.863281 182.59375 65.421875 182.734375 63.984375 C 182.878906 62.550781 183.089844 61.125 183.371094 59.707031 C 183.652344 58.292969 184.003906 56.894531 184.421875 55.511719 C 184.839844 54.132812 185.324219 52.773438 185.878906 51.441406 C 186.429688 50.109375 187.046875 48.804688 187.726562 47.53125 C 188.40625 46.257812 189.148438 45.023438 189.949219 43.820312 C 190.753906 42.621094 191.609375 41.464844 192.527344 40.347656 C 193.441406 39.234375 194.410156 38.164062 195.429688 37.144531 C 196.453125 36.125 197.519531 35.15625 198.636719 34.238281 C 199.75 33.324219 200.910156 32.464844 202.109375 31.664062 C 203.308594 30.863281 204.546875 30.121094 205.816406 29.441406 C 207.089844 28.761719 208.394531 28.144531 209.726562 27.589844 C 211.0625 27.039062 212.417969 26.554688 213.800781 26.132812 C 215.179688 25.714844 216.578125 25.363281 217.996094 25.082031 C 219.410156 24.800781 220.835938 24.589844 222.273438 24.449219 C 223.707031 24.308594 225.148438 24.238281 226.59375 24.238281 C 228.035156 24.238281 229.476562 24.308594 230.910156 24.449219 C 232.347656 24.589844 233.773438 24.800781 235.1875 25.082031 C 236.605469 25.363281 238.003906 25.714844 239.382812 26.132812 C 240.765625 26.554688 242.121094 27.039062 243.457031 27.589844 C 244.789062 28.144531 246.09375 28.761719 247.367188 29.441406 C 248.636719 30.121094 249.875 30.863281 251.074219 31.664062 C 252.273438 32.464844 253.433594 33.324219 254.546875 34.238281 C 255.664062 35.15625 256.734375 36.125 257.753906 37.144531 C 258.773438 38.164062 259.742188 39.234375 260.65625 40.347656 C 261.574219 41.464844 262.433594 42.621094 263.234375 43.820312 C 264.035156 45.023438 264.777344 46.257812 265.457031 47.53125 C 266.136719 48.804688 266.753906 50.109375 267.304688 51.441406 C 267.859375 52.773438 268.34375 54.132812 268.761719 55.511719 C 269.183594 56.894531 269.53125 58.292969 269.8125 59.707031 C 270.09375 61.125 270.308594 62.550781 270.449219 63.984375 C 270.589844 65.421875 270.660156 66.863281 270.660156 68.304688 Z M 270.660156 68.304688 "/></g></svg>