<svg xmlns="http://www.w3.org/2000/svg" xmlns:xlink="http://www.w3.org/1999/xlink" width="500" zoomAndPan="magnify" viewBox="0 0 375 374.999991" height="500" preserveAspectRatio="xMidYMid meet" version="1.2"><g id="bde64b09aa"><path style=" stroke:none;fill-rule:evenodd;fill:#545454;fill-opacity:1;" d="M 235.152344 24.875 C 236.429688 116.875 235.820312 215.042969 243.226562 306.617188 C 247.125 308.582031 252.457031 309.117188 252.761719 314.683594 C 263.5625 310.433594 277.566406 310.5625 286.511719 314.683594 C 305.609375 323.488281 320.113281 334.929688 320.996094 357.972656 C 301.363281 362.296875 277.191406 360.707031 252.761719 361.640625 C 239.320312 362.15625 229.675781 365.441406 216.074219 364.574219 C 202.472656 363.707031 188.578125 365.457031 185.996094 352.105469 C 175.816406 356.425781 158.796875 355.910156 145.640625 356.503906 C 121.183594 357.609375 94.636719 356.433594 62 353.570312 C 57.914062 343.957031 54.007812 320.339844 59.0625 310.28125 C 63.03125 302.390625 78.351562 296.472656 91.347656 298.542969 C 105.871094 300.859375 116.316406 311.933594 128.03125 316.152344 C 130.785156 298.738281 123.636719 279.535156 122.164062 260.390625 C 116.140625 182.179688 119.683594 91.039062 107.488281 16.804688 C 115.65625 14.964844 124.730469 11.832031 133.902344 10.929688 C 148.140625 9.535156 160.835938 14 175.722656 14.597656 C 196.828125 15.453125 220.480469 13.230469 235.152344 24.875 M 118.496094 23.40625 C 127.710938 121.410156 125.625 228.355469 139.773438 319.085938 C 139.292969 323.65625 134.050781 319.269531 134.636719 324.222656 C 141.496094 327.949219 151.140625 326.039062 158.847656 325.691406 C 167.605469 325.289062 177.210938 325.359375 185.261719 323.488281 C 185.414062 236.226562 177.757812 154.023438 172.789062 72.5625 C 179.523438 73.777344 190.722656 67.261719 195.535156 74.765625 C 190.519531 76.355469 183.667969 76.105469 178.660156 77.699219 C 182.300781 162.007812 187.574219 241.613281 190.398438 324.957031 C 196.035156 323.746094 211.007812 325.457031 224.882812 324.957031 C 232.386719 324.683594 244.453125 323.328125 243.957031 319.085938 C 243.308594 313.519531 239.863281 316.324219 235.886719 313.21875 C 229.355469 257.59375 229.738281 204.125 227.8125 147.402344 C 226.53125 109.394531 228.15625 67.75 226.351562 27.808594 C 193.207031 22.890625 153.625 15.5 118.496094 23.40625 M 159.582031 330.09375 C 150.039062 330.746094 140.859375 330.445312 133.902344 333.027344 C 122.800781 326.039062 101.105469 301.617188 78.875 306.617188 C 65.5 309.621094 63.011719 328.726562 67.136719 344.765625 C 106.1875 352.167969 150.578125 352.171875 185.996094 342.566406 C 187.761719 337.992188 186.636719 335.203125 185.996094 330.09375 C 177.316406 328.597656 167.675781 329.535156 159.582031 330.09375 M 268.90625 318.351562 C 256.832031 318.710938 252.441406 327.382812 243.226562 330.824219 C 241.78125 330.316406 243.402344 326.734375 241.757812 326.421875 C 225.109375 330.664062 206.851562 327.984375 191.863281 330.09375 C 191.34375 339.421875 193.308594 346.253906 195.535156 352.839844 C 229.300781 353.957031 270.738281 357 310.726562 352.105469 C 309.859375 335.472656 284.105469 317.898438 268.90625 318.351562 "/><path style=" stroke:none;fill-rule:evenodd;fill:#747679;fill-opacity:1;" d="M 226.351562 27.808594 C 228.15625 67.75 226.53125 109.394531 227.8125 147.402344 C 229.738281 204.125 229.355469 257.59375 235.886719 313.21875 C 239.863281 316.324219 243.308594 313.519531 243.957031 319.085938 C 244.453125 323.328125 232.386719 324.683594 224.882812 324.957031 C 211.007812 325.457031 196.035156 323.746094 190.398438 324.957031 C 187.574219 241.613281 182.300781 162.007812 178.660156 77.699219 C 183.667969 76.105469 190.519531 76.355469 195.535156 74.765625 C 190.722656 67.261719 179.523438 73.78125 172.789062 72.5625 C 177.757812 154.023438 185.414062 236.226562 185.261719 323.488281 C 177.210938 325.359375 167.605469 325.289062 158.847656 325.691406 C 151.140625 326.039062 141.496094 327.949219 134.636719 324.222656 C 134.050781 319.269531 139.292969 323.65625 139.773438 319.085938 C 125.625 228.355469 127.710938 121.410156 118.496094 23.40625 C 153.625 15.5 193.207031 22.890625 226.351562 27.808594 "/><path style=" stroke:none;fill-rule:evenodd;fill:#72664e;fill-opacity:1;" d="M 185.996094 330.09375 C 186.636719 335.203125 187.761719 337.992188 185.996094 342.566406 C 150.578125 352.171875 106.1875 352.167969 67.136719 344.765625 C 63.011719 328.726562 65.5 309.621094 78.875 306.617188 C 101.105469 301.621094 122.800781 326.039062 133.902344 333.027344 C 140.859375 330.449219 150.039062 330.746094 159.582031 330.09375 C 167.675781 329.535156 177.316406 328.597656 185.996094 330.09375 "/><path style=" stroke:none;fill-rule:evenodd;fill:#72664e;fill-opacity:1;" d="M 310.726562 352.105469 C 270.738281 357 229.300781 353.957031 195.535156 352.839844 C 193.308594 346.253906 191.34375 339.421875 191.863281 330.09375 C 206.851562 327.984375 225.109375 330.664062 241.757812 326.421875 C 243.402344 326.734375 241.78125 330.316406 243.222656 330.824219 C 252.445312 327.382812 256.832031 318.710938 268.90625 318.351562 C 284.105469 317.898438 309.859375 335.472656 310.726562 352.105469 "/></g></svg>