<svg xmlns="http://www.w3.org/2000/svg" xmlns:xlink="http://www.w3.org/1999/xlink" width="500" zoomAndPan="magnify" viewBox="0 0 375 374.999991" height="500" preserveAspectRatio="xMidYMid meet" version="1.2"><g id="5549f0075a"><path style=" stroke:none;fill-rule:evenodd;fill:#747679;fill-opacity:1;" d="M 177.527344 157.800781 C 175.601562 160.160156 175.042969 161.257812 175.042969 161.257812 L 174.007812 160.015625 C 173.449219 159.457031 172.972656 157.449219 173.117188 156.890625 C 173.28125 156.332031 175.683594 154.40625 174.957031 151.671875 C 174.234375 148.941406 171.109375 143 171.273438 141.382812 C 171.4375 139.769531 178.023438 129.003906 179.78125 124.035156 C 181.542969 119.046875 182.121094 118.820312 183.632812 117.039062 C 185.164062 115.277344 192.390625 107.308594 197.6875 101.054688 C 202.988281 94.785156 204.769531 94.472656 204.769531 94.472656 L 210.875 94.785156 C 210.875 94.785156 203.960938 110.539062 202.84375 120.164062 C 201.726562 129.8125 198.828125 138.007812 196.261719 142.8125 C 193.695312 147.636719 189.347656 148.113281 186.777344 149.394531 C 184.191406 150.679688 179.449219 155.417969 177.527344 157.800781 Z M 246.359375 53.585938 C 243.316406 53.421875 239.300781 53.253906 234.476562 57.4375 C 229.652344 61.621094 229.011719 63.214844 229.011719 63.214844 C 229.011719 63.214844 214.871094 64.1875 211.496094 65.78125 C 208.121094 67.394531 202.988281 68.183594 197.359375 71.722656 C 191.726562 75.261719 190.132812 76.855469 187.710938 76.855469 C 185.308594 76.855469 184.171875 78.78125 182.722656 80.230469 C 181.273438 81.679688 174.214844 89.234375 170.195312 98.71875 C 166.179688 108.199219 162 127.328125 159.910156 132.460938 C 157.816406 137.59375 154.132812 140.015625 152.351562 144.984375 C 150.59375 149.976562 150.59375 154.300781 149.785156 155.273438 C 148.976562 156.246094 147.445312 157.675781 145.519531 160.492188 C 143.59375 163.308594 141.980469 166.203125 141.835938 167.488281 C 141.671875 168.773438 142.558594 169.578125 143.679688 168.605469 C 144.796875 167.632812 147.859375 163.390625 149.703125 161.773438 C 151.542969 160.160156 153.078125 157.675781 153.324219 158.398438 C 153.574219 159.125 152.847656 160.242188 152.433594 160.65625 C 152.042969 161.050781 148.417969 168.730469 146.761719 171.503906 C 145.105469 174.277344 144.359375 175.398438 145.066406 176.285156 C 145.789062 177.175781 147.28125 177.320312 147.921875 176.410156 C 148.5625 175.480469 152.910156 168.542969 154.027344 165.894531 C 155.148438 163.246094 156.429688 160.988281 157.238281 161.402344 C 158.046875 161.796875 157.878906 162.519531 157.878906 162.519531 C 157.878906 162.519531 155.789062 178.191406 155.871094 179.742188 C 155.953125 181.316406 157.238281 182.082031 158.355469 181.960938 C 159.472656 181.835938 160.054688 180.035156 160.074219 179.101562 C 160.117188 178.171875 161.875 171.917969 162.371094 167.34375 C 162.847656 162.769531 163.988281 161.960938 164.378906 162.601562 C 164.773438 163.246094 167.03125 174.175781 167.03125 174.175781 C 167.03125 174.175781 163.820312 187.507812 162.621094 190.652344 C 161.417969 193.78125 160.777344 194.671875 160.777344 194.671875 C 160.777344 194.671875 148.171875 202.867188 140.613281 215.890625 C 133.058594 228.910156 127.59375 237.75 118.277344 244.644531 C 108.960938 251.558594 98.03125 257.105469 93.765625 263.191406 C 89.5 269.300781 74.574219 294.679688 71.429688 298.054688 C 68.300781 301.429688 67.886719 301.824219 66.292969 303.273438 C 64.679688 304.722656 63.394531 304.949219 63.394531 305.527344 C 63.394531 306.085938 62.359375 306.730469 61.222656 306.730469 C 60.105469 306.730469 53.5 308.652344 48.367188 308.652344 C 43.234375 308.652344 41.308594 309.773438 39.691406 312.503906 C 38.078125 315.238281 40.976562 322.792969 41.949219 333.703125 C 42.921875 344.632812 42.589844 348.484375 44.847656 353.617188 C 47.105469 358.753906 50.871094 362.292969 56.894531 364.21875 C 62.921875 366.144531 69.109375 366.472656 69.75 364.300781 C 70.394531 362.128906 69.835938 361.816406 69.421875 361.402344 C 69.027344 361.007812 69.027344 359.394531 66.441406 356.496094 C 63.871094 353.597656 63.066406 353.761719 63.394531 351.28125 C 63.726562 348.796875 64.929688 346.871094 65.878906 341.714844 C 66.851562 336.582031 68.921875 333.929688 71.429688 331.839844 C 73.914062 329.75 74.078125 327.824219 73.769531 327.101562 C 73.4375 326.375 73.683594 325.566406 73.683594 325.566406 L 74.65625 322.917969 C 74.988281 322.027344 76.582031 318.820312 76.582031 318.820312 C 76.582031 318.820312 79.875 309.894531 85.507812 305.074219 C 91.136719 300.25 113.308594 272.445312 121.339844 268.429688 C 129.375 264.414062 132.914062 263.773438 139.496094 258.636719 C 146.078125 253.503906 146.722656 252.53125 147.527344 252.054688 C 148.335938 251.578125 157.984375 245.78125 167.300781 236.796875 C 176.613281 227.792969 195.246094 212.703125 201.207031 208.519531 C 207.148438 204.335938 210.046875 203.21875 210.046875 203.21875 C 210.046875 203.21875 225.472656 207.484375 233.109375 207.628906 C 240.75 207.796875 265.011719 207.320312 265.796875 207.464844 C 266.605469 207.628906 266.605469 208.914062 266.191406 208.1875 C 265.796875 207.464844 258.636719 214.460938 253.335938 225.058594 C 248.035156 235.660156 247.0625 240.960938 242.40625 245.949219 C 237.746094 250.9375 231 258.640625 230.75 259.613281 C 230.5 260.585938 230.75 261.226562 230.355469 261.535156 C 229.964844 261.867188 228.824219 263.214844 228.824219 263.214844 C 228.824219 263.214844 228.660156 262.570312 227.128906 264.019531 C 225.59375 265.46875 224.082031 266.835938 224.082031 266.835938 C 224.082031 266.835938 224.476562 264.582031 221.601562 267.003906 C 218.703125 269.402344 214.683594 273.027344 211.476562 277.207031 C 208.269531 281.390625 207.292969 285.074219 209.863281 287.164062 C 212.429688 289.257812 238.617188 304.886719 245.574219 308.488281 C 252.527344 312.113281 258.179688 313.539062 261.886719 313.476562 C 265.589844 313.394531 266.109375 311.757812 266.027344 311.179688 C 265.941406 310.621094 267.515625 309.8125 265.820312 307.597656 C 264.121094 305.382812 254.371094 297.433594 251.078125 291.410156 C 247.789062 285.386719 245.449219 284.496094 246.339844 280.480469 C 247.230469 276.464844 248.179688 274.289062 246.816406 273.171875 C 245.449219 272.054688 245.367188 271.96875 245.367188 271.96875 C 245.367188 271.96875 250.105469 264.019531 252.589844 260.769531 C 255.074219 257.519531 283.394531 232.285156 287.742188 226.507812 C 292.089844 220.734375 294.40625 218.953125 297.867188 215.019531 C 301.324219 211.085938 302.855469 200.964844 302.523438 198.480469 C 302.191406 195.996094 290.558594 183.304688 277.703125 176.699219 C 264.847656 170.117188 242.675781 163.285156 239.300781 162.726562 C 235.925781 162.167969 235.035156 161.359375 235.035156 161.359375 C 235.035156 161.359375 236.960938 158.378906 242.589844 150.511719 C 248.222656 142.644531 253.191406 134.449219 253.191406 134.449219 C 253.191406 134.449219 255.921875 138.628906 258.324219 138.132812 C 260.726562 137.65625 263.148438 135.875 263.148438 135.875 C 263.148438 135.875 276.644531 131.859375 287.578125 122.542969 C 298.507812 113.230469 307.347656 106.148438 307.347656 106.148438 C 307.347656 106.148438 311.527344 106.957031 316.351562 102.464844 C 321.175781 97.972656 321.652344 95.796875 323.578125 94.265625 C 325.503906 92.734375 329.042969 91.617188 331.296875 89.089844 C 333.554688 86.566406 334.074219 85.15625 333.660156 84.558594 C 333.265625 83.957031 332.933594 83.832031 332.933594 83.832031 C 332.933594 83.832031 335.191406 81.949219 335.792969 80.066406 C 336.390625 78.179688 335.460938 76.855469 334.300781 77.167969 C 333.140625 77.496094 326.867188 82.425781 325.210938 83.789062 C 323.554688 85.15625 323.371094 85.117188 323.371094 85.117188 C 323.371094 85.117188 330.410156 77.726562 331.652344 74.019531 C 332.894531 70.335938 330.84375 70.335938 330.078125 70.5625 C 329.3125 70.8125 329.082031 70.914062 329.082031 70.914062 C 329.082031 70.914062 329.332031 69.753906 327.59375 69.339844 C 325.875 68.949219 323.328125 72.238281 320.554688 74.558594 C 317.78125 76.898438 313.328125 81.222656 313.328125 81.222656 C 313.328125 81.222656 314.488281 78.617188 312.085938 76.484375 C 309.6875 74.351562 308.960938 74.183594 308.277344 75.28125 C 307.59375 76.359375 308.921875 78.324219 308.628906 80.375 C 308.339844 82.425781 305.898438 83.875 304.613281 87.890625 C 303.332031 91.90625 302.316406 95.921875 301.796875 96.292969 C 301.28125 96.648438 284.078125 106.625 280.953125 107.433594 C 277.824219 108.238281 267.929688 109.605469 267.929688 109.605469 C 267.929688 109.605469 271.78125 97.558594 270.746094 90.085938 C 269.710938 82.609375 268.738281 83.417969 267.765625 79.710938 C 266.792969 76.027344 266.957031 72.796875 267.371094 71.285156 C 267.765625 69.753906 271.261719 63.730469 273.769531 62.777344 C 276.253906 61.804688 279.441406 63.378906 282.609375 63.378906 C 285.777344 63.378906 286.457031 62.945312 286.707031 60.730469 C 286.957031 58.515625 287.101562 57.707031 287.101562 57.707031 C 287.101562 57.707031 287.078125 57.066406 287.742188 56.589844 C 288.40625 56.113281 288.757812 56.421875 288.921875 55.617188 C 289.085938 54.808594 288.734375 53.898438 288.839844 53.585938 C 288.941406 53.277344 289.6875 53.503906 290.683594 52.988281 C 291.695312 52.46875 291.964844 51.972656 291.757812 51.496094 C 291.550781 51.019531 291.097656 48.949219 291.570312 48.472656 C 292.046875 47.996094 293.789062 48.183594 294.222656 48.039062 C 294.65625 47.875 295.589844 48.121094 296.394531 47.3125 C 297.203125 46.507812 295.421875 44.332031 294.820312 43.339844 C 294.222656 42.324219 293.457031 38.992188 293.933594 37.75 C 294.40625 36.507812 295.421875 35.535156 295.546875 34.457031 C 295.898438 31.269531 295.855469 21.042969 290.496094 15.269531 C 287.515625 12.058594 279.398438 7.960938 270.726562 8.269531 C 262.050781 8.601562 255.863281 14.542969 252.175781 20.484375 C 248.472656 26.425781 252.011719 34.542969 251.929688 37.605469 C 251.84375 40.648438 248.84375 49.175781 247.789062 51.101562 C 246.816406 53.070312 246.359375 53.585938 246.359375 53.585938 Z M 246.359375 53.585938 "/></g></svg>