<svg xmlns="http://www.w3.org/2000/svg" xmlns:xlink="http://www.w3.org/1999/xlink" width="500" zoomAndPan="magnify" viewBox="0 0 375 374.999991" height="500" preserveAspectRatio="xMidYMid meet" version="1.2"><defs><clipPath id="9b07371874"><path d="M 17.019531 11.0625 L 358 11.0625 L 358 363.5625 L 17.019531 363.5625 Z M 17.019531 11.0625 "/></clipPath></defs><g id="b7dcf0ea8b"><g clip-rule="nonzero" clip-path="url(#9b07371874)"><path style=" stroke:none;fill-rule:nonzero;fill:#747679;fill-opacity:1;" d="M 356.605469 107.84375 C 356.308594 107.578125 355.972656 107.382812 355.601562 107.253906 C 355.226562 107.125 354.839844 107.070312 354.445312 107.09375 C 354.050781 107.117188 353.675781 107.21875 353.320312 107.390625 C 352.964844 107.5625 352.65625 107.796875 352.394531 108.09375 L 278.921875 190.75 C 276.960938 186.996094 274.566406 183.542969 271.738281 180.390625 C 268.914062 177.238281 265.742188 174.484375 262.222656 172.128906 L 206.882812 135.238281 L 297.363281 16.429688 C 297.605469 16.113281 297.773438 15.765625 297.875 15.378906 C 297.976562 14.996094 298 14.609375 297.945312 14.214844 C 297.890625 13.820312 297.761719 13.453125 297.5625 13.109375 C 297.359375 12.769531 297.101562 12.476562 296.785156 12.238281 C 296.46875 12 296.121094 11.828125 295.734375 11.726562 C 295.351562 11.628906 294.964844 11.605469 294.570312 11.660156 C 294.175781 11.714844 293.808594 11.839844 293.464844 12.039062 C 293.125 12.242188 292.832031 12.5 292.59375 12.816406 L 201.933594 131.921875 L 165.972656 107.949219 L 106.644531 13.0625 C 106.4375 12.726562 106.171875 12.441406 105.847656 12.210938 C 105.527344 11.984375 105.171875 11.824219 104.785156 11.734375 C 104.402344 11.644531 104.011719 11.632812 103.625 11.699219 C 103.234375 11.761719 102.871094 11.902344 102.535156 12.109375 C 102.199219 12.320312 101.917969 12.585938 101.6875 12.910156 C 101.457031 13.230469 101.296875 13.585938 101.207031 13.96875 C 101.121094 14.355469 101.109375 14.742188 101.175781 15.132812 C 101.238281 15.523438 101.378906 15.886719 101.585938 16.222656 L 161.230469 111.652344 C 161.460938 112.015625 161.753906 112.316406 162.109375 112.554688 L 258.917969 177.089844 C 262.15625 179.253906 265.066406 181.796875 267.644531 184.71875 C 270.21875 187.640625 272.378906 190.84375 274.121094 194.328125 L 296.382812 238.90625 C 297.4375 240.984375 297.960938 243.191406 297.960938 245.527344 L 297.960938 248.984375 C 297.964844 251.332031 297.433594 253.550781 296.367188 255.640625 L 295.59375 257.199219 C 295.222656 257.945312 294.753906 258.628906 294.191406 259.246094 C 293.628906 259.867188 292.992188 260.394531 292.28125 260.832031 C 291.570312 261.273438 290.8125 261.605469 290.007812 261.832031 C 289.203125 262.058594 288.382812 262.171875 287.546875 262.167969 L 284.566406 262.167969 C 284.347656 261.449219 284.09375 260.75 283.796875 260.0625 L 267.8125 228.03125 C 267.644531 227.660156 267.414062 227.335938 267.117188 227.0625 C 266.816406 226.785156 266.476562 226.578125 266.09375 226.441406 C 265.710938 226.304688 265.316406 226.246094 264.910156 226.269531 C 264.503906 226.292969 264.121094 226.398438 263.757812 226.578125 C 263.394531 226.761719 263.078125 227.007812 262.816406 227.316406 C 262.550781 227.625 262.359375 227.976562 262.238281 228.363281 C 262.117188 228.75 262.078125 229.148438 262.121094 229.550781 C 262.164062 229.957031 262.28125 230.335938 262.480469 230.691406 L 278.464844 262.722656 C 278.972656 263.734375 279.355469 264.796875 279.613281 265.902344 C 279.910156 267.042969 280.058594 268.203125 280.054688 269.382812 L 280.054688 272.128906 C 280.058594 273.320312 279.828125 274.46875 279.371094 275.570312 C 278.914062 276.671875 278.261719 277.644531 277.414062 278.484375 L 272.515625 283.382812 C 271.675781 284.230469 270.703125 284.882812 269.601562 285.339844 C 268.5 285.796875 267.351562 286.027344 266.160156 286.023438 L 260.707031 286.023438 C 260.492188 285.308594 260.234375 284.605469 259.9375 283.917969 L 243.953125 251.890625 C 243.789062 251.519531 243.554688 251.195312 243.257812 250.917969 C 242.960938 250.640625 242.617188 250.433594 242.234375 250.296875 C 241.851562 250.160156 241.457031 250.105469 241.054688 250.128906 C 240.648438 250.152344 240.261719 250.253906 239.898438 250.4375 C 239.535156 250.617188 239.222656 250.863281 238.957031 251.171875 C 238.695312 251.484375 238.503906 251.832031 238.382812 252.222656 C 238.261719 252.609375 238.222656 253.003906 238.261719 253.410156 C 238.304688 253.816406 238.425781 254.195312 238.621094 254.550781 L 254.605469 286.578125 C 255.117188 287.59375 255.5 288.652344 255.757812 289.757812 C 256.054688 290.902344 256.199219 292.0625 256.199219 293.242188 L 256.199219 295.507812 C 256.179688 298.511719 255.355469 301.277344 253.722656 303.800781 L 248.277344 311.875 C 247.875 312.488281 247.402344 313.039062 246.859375 313.535156 C 246.316406 314.03125 245.722656 314.449219 245.074219 314.796875 C 244.429688 315.144531 243.75 315.40625 243.039062 315.585938 C 242.324219 315.761719 241.601562 315.847656 240.871094 315.847656 L 236.875 315.847656 C 236.65625 315.121094 236.394531 314.414062 236.097656 313.71875 L 220.09375 281.707031 C 219.917969 281.355469 219.675781 281.054688 219.378906 280.796875 C 219.078125 280.542969 218.742188 280.351562 218.371094 280.230469 C 217.996094 280.105469 217.613281 280.058594 217.21875 280.089844 C 216.828125 280.117188 216.453125 280.21875 216.101562 280.394531 C 215.75 280.574219 215.445312 280.808594 215.1875 281.105469 C 214.929688 281.402344 214.738281 281.738281 214.613281 282.113281 C 214.488281 282.484375 214.4375 282.867188 214.464844 283.261719 C 214.488281 283.652344 214.589844 284.027344 214.761719 284.378906 L 230.765625 316.382812 C 231.8125 318.484375 232.335938 320.707031 232.339844 323.050781 L 232.339844 325.34375 C 232.34375 328.355469 231.507812 331.113281 229.835938 333.617188 L 224.46875 341.683594 C 224.058594 342.296875 223.582031 342.851562 223.035156 343.347656 C 222.492188 343.84375 221.894531 344.261719 221.246094 344.609375 C 220.597656 344.957031 219.914062 345.222656 219.199219 345.402344 C 218.484375 345.578125 217.761719 345.667969 217.023438 345.667969 L 206.214844 345.667969 L 198.617188 341.871094 L 201.660156 338.835938 C 202.675781 337.957031 203.589844 336.984375 204.410156 335.921875 C 205.226562 334.855469 205.929688 333.722656 206.515625 332.515625 C 207.105469 331.308594 207.5625 330.054688 207.898438 328.753906 C 208.230469 327.453125 208.429688 326.132812 208.496094 324.792969 C 208.496094 324.113281 208.464844 323.433594 208.398438 322.757812 C 208.332031 322.078125 208.234375 321.40625 208.101562 320.738281 C 207.96875 320.070312 207.804688 319.410156 207.609375 318.757812 C 207.414062 318.105469 207.1875 317.464844 206.925781 316.835938 C 206.667969 316.203125 206.378906 315.589844 206.058594 314.988281 C 205.742188 314.386719 205.394531 313.800781 205.015625 313.234375 C 204.640625 312.667969 204.238281 312.121094 203.804688 311.59375 C 203.375 311.066406 202.921875 310.558594 202.441406 310.078125 C 201.960938 309.59375 201.460938 309.132812 200.933594 308.699219 C 200.410156 308.265625 199.867188 307.859375 199.300781 307.480469 C 198.738281 307.097656 198.15625 306.746094 197.554688 306.421875 C 196.957031 306.097656 196.34375 305.804688 195.714844 305.542969 C 195.085938 305.277344 194.449219 305.046875 193.796875 304.84375 C 193.148438 304.644531 192.488281 304.476562 191.820312 304.339844 C 191.15625 304.203125 190.480469 304.101562 189.804688 304.03125 C 189.128906 303.960938 188.449219 303.921875 187.769531 303.917969 C 189.578125 301.210938 190.523438 298.226562 190.601562 294.972656 C 190.601562 294.3125 190.574219 293.652344 190.511719 292.996094 C 190.453125 292.339844 190.359375 291.6875 190.238281 291.039062 C 190.113281 290.390625 189.960938 289.75 189.777344 289.117188 C 189.589844 288.484375 189.378906 287.859375 189.132812 287.246094 C 188.890625 286.632812 188.617188 286.035156 188.316406 285.445312 C 188.015625 284.859375 187.6875 284.289062 187.332031 283.734375 C 186.976562 283.175781 186.59375 282.640625 186.1875 282.121094 C 185.78125 281.601562 185.347656 281.101562 184.894531 280.625 C 184.441406 280.144531 183.964844 279.691406 183.464844 279.257812 C 182.96875 278.824219 182.449219 278.417969 181.914062 278.035156 C 181.375 277.652344 180.820312 277.292969 180.25 276.964844 C 179.679688 276.632812 179.09375 276.332031 178.492188 276.058594 C 177.894531 275.78125 177.28125 275.539062 176.660156 275.320312 C 176.035156 275.105469 175.402344 274.921875 174.761719 274.765625 C 174.121094 274.609375 173.472656 274.484375 172.820312 274.390625 C 172.167969 274.296875 171.511719 274.234375 170.851562 274.203125 L 171.835938 273.226562 C 172.851562 272.347656 173.769531 271.375 174.585938 270.3125 C 175.402344 269.246094 176.105469 268.113281 176.695312 266.90625 C 177.28125 265.699219 177.742188 264.445312 178.074219 263.144531 C 178.40625 261.84375 178.605469 260.523438 178.671875 259.183594 C 178.671875 258.5 178.636719 257.820312 178.570312 257.136719 C 178.503906 256.457031 178.40625 255.78125 178.269531 255.113281 C 178.136719 254.441406 177.972656 253.777344 177.773438 253.125 C 177.574219 252.46875 177.34375 251.828125 177.082031 251.195312 C 176.820312 250.5625 176.53125 249.945312 176.207031 249.34375 C 175.886719 248.742188 175.535156 248.15625 175.152344 247.585938 C 174.773438 247.019531 174.367188 246.46875 173.933594 245.941406 C 173.5 245.414062 173.042969 244.90625 172.558594 244.421875 C 172.074219 243.941406 171.566406 243.480469 171.039062 243.046875 C 170.511719 242.613281 169.960938 242.207031 169.394531 241.828125 C 168.824219 241.449219 168.238281 241.097656 167.636719 240.773438 C 167.035156 240.453125 166.417969 240.160156 165.785156 239.898438 C 165.152344 239.636719 164.511719 239.40625 163.855469 239.207031 C 163.203125 239.007812 162.539062 238.84375 161.867188 238.710938 C 161.199219 238.578125 160.523438 238.476562 159.84375 238.410156 C 159.164062 238.34375 158.480469 238.308594 157.796875 238.308594 C 156.457031 238.375 155.136719 238.574219 153.835938 238.90625 C 152.535156 239.238281 151.28125 239.699219 150.074219 240.285156 C 148.867188 240.875 147.734375 241.578125 146.667969 242.394531 C 145.605469 243.214844 144.632812 244.128906 143.757812 245.144531 L 142.777344 246.128906 C 142.746094 245.46875 142.683594 244.8125 142.589844 244.160156 C 142.496094 243.507812 142.371094 242.859375 142.214844 242.21875 C 142.0625 241.578125 141.875 240.945312 141.660156 240.324219 C 141.441406 239.699219 141.199219 239.085938 140.925781 238.488281 C 140.648438 237.886719 140.347656 237.300781 140.015625 236.730469 C 139.6875 236.160156 139.328125 235.605469 138.945312 235.066406 C 138.5625 234.53125 138.15625 234.011719 137.722656 233.515625 C 137.289062 233.015625 136.835938 232.542969 136.355469 232.085938 C 135.878906 231.632812 135.378906 231.199219 134.859375 230.792969 C 134.339844 230.386719 133.804688 230.003906 133.25 229.648438 C 132.691406 229.292969 132.121094 228.964844 131.535156 228.664062 C 130.949219 228.363281 130.347656 228.089844 129.734375 227.847656 C 129.121094 227.605469 128.5 227.390625 127.863281 227.207031 C 127.230469 227.019531 126.589844 226.867188 125.941406 226.742188 C 125.292969 226.621094 124.640625 226.527344 123.984375 226.46875 C 123.328125 226.40625 122.667969 226.378906 122.007812 226.378906 C 120.667969 226.445312 119.347656 226.644531 118.046875 226.976562 C 116.75 227.308594 115.496094 227.769531 114.289062 228.359375 C 113.082031 228.945312 111.945312 229.648438 110.882812 230.464844 C 109.820312 231.285156 108.847656 232.199219 107.96875 233.214844 L 94.296875 246.890625 C 93.894531 247.292969 93.515625 247.714844 93.152344 248.15625 C 92.792969 248.597656 92.453125 249.050781 92.136719 249.527344 C 91.820312 250 91.527344 250.488281 91.257812 250.988281 C 90.988281 251.492188 90.746094 252.003906 90.527344 252.53125 C 90.3125 253.058594 90.121094 253.59375 89.953125 254.136719 C 89.789062 254.683594 89.652344 255.234375 89.539062 255.792969 C 89.429688 256.351562 89.34375 256.914062 89.289062 257.480469 C 89.234375 258.046875 89.207031 258.617188 89.207031 259.183594 C 89.207031 259.753906 89.234375 260.320312 89.289062 260.890625 C 89.34375 261.457031 89.429688 262.019531 89.539062 262.578125 C 89.652344 263.136719 89.789062 263.6875 89.953125 264.230469 C 90.121094 264.777344 90.3125 265.3125 90.527344 265.835938 C 90.746094 266.363281 90.988281 266.878906 91.257812 267.378906 C 91.527344 267.882812 91.820312 268.371094 92.136719 268.84375 C 92.453125 269.316406 92.792969 269.773438 93.152344 270.214844 C 93.515625 270.652344 93.894531 271.074219 94.296875 271.476562 L 97.789062 274.964844 C 99.421875 276.589844 101.304688 277.84375 103.429688 278.726562 C 105.558594 279.609375 107.777344 280.054688 110.082031 280.058594 C 111.195312 280.058594 112.300781 279.945312 113.398438 279.726562 C 113.179688 280.820312 113.066406 281.925781 113.0625 283.042969 C 113.070312 285.347656 113.515625 287.5625 114.394531 289.691406 C 115.277344 291.820312 116.53125 293.703125 118.15625 295.335938 L 121.644531 298.824219 C 123.28125 300.449219 125.160156 301.703125 127.289062 302.585938 C 129.417969 303.46875 131.632812 303.910156 133.9375 303.917969 C 135.054688 303.914062 136.160156 303.804688 137.253906 303.585938 C 137.035156 304.679688 136.925781 305.785156 136.921875 306.902344 C 136.925781 309.203125 137.371094 311.421875 138.253906 313.550781 C 139.136719 315.679688 140.390625 317.558594 142.015625 319.191406 L 145.503906 322.683594 C 147.136719 324.308594 149.019531 325.5625 151.148438 326.441406 C 153.277344 327.324219 155.492188 327.769531 157.796875 327.777344 C 158.914062 327.773438 160.019531 327.660156 161.113281 327.441406 C 160.894531 328.535156 160.78125 329.640625 160.777344 330.757812 C 160.777344 347.625 154.652344 354.617188 151.832031 356.953125 L 94.574219 316.855469 L 65.441406 252.777344 L 77.277344 170.140625 C 77.382812 169.320312 77.183594 168.582031 76.679688 167.929688 L 23 96.355469 C 22.761719 96.039062 22.472656 95.78125 22.132812 95.578125 C 21.792969 95.375 21.425781 95.246094 21.035156 95.191406 C 20.644531 95.136719 20.257812 95.15625 19.875 95.253906 C 19.492188 95.351562 19.140625 95.519531 18.824219 95.757812 C 18.507812 95.996094 18.25 96.285156 18.046875 96.625 C 17.847656 96.964844 17.71875 97.332031 17.660156 97.722656 C 17.605469 98.113281 17.625 98.5 17.726562 98.882812 C 17.824219 99.265625 17.992188 99.617188 18.226562 99.933594 L 71.167969 170.515625 L 64.964844 213.921875 L 48.574219 227.042969 C 48.417969 227.167969 48.273438 227.308594 48.144531 227.464844 L 18.324219 263.253906 C 17.921875 263.730469 17.695312 264.28125 17.640625 264.902344 C 17.585938 265.523438 17.714844 266.105469 18.023438 266.644531 C 18.746094 267.71875 19.53125 268.742188 20.382812 269.714844 C 21.234375 270.6875 22.140625 271.605469 23.109375 272.460938 C 24.078125 273.316406 25.097656 274.109375 26.164062 274.835938 C 27.234375 275.5625 28.34375 276.21875 29.5 276.804688 C 30.652344 277.386719 31.835938 277.898438 33.054688 278.332031 C 34.273438 278.765625 35.511719 279.117188 36.777344 279.390625 C 38.039062 279.667969 39.316406 279.859375 40.601562 279.972656 C 41.890625 280.082031 43.179688 280.113281 44.472656 280.058594 C 48.625 279.800781 52.6875 279.050781 56.65625 277.8125 C 60.628906 276.574219 64.398438 274.878906 67.960938 272.730469 L 89.472656 320.0625 C 89.703125 320.550781 90.035156 320.949219 90.476562 321.257812 L 150.121094 363.007812 C 150.632812 363.375 151.203125 363.558594 151.832031 363.5625 C 152.300781 363.5625 152.746094 363.457031 153.167969 363.246094 C 153.621094 363.019531 162.441406 358.390625 165.609375 342.734375 C 165.707031 342.832031 165.769531 342.949219 165.871094 343.050781 L 169.363281 346.539062 C 169.765625 346.941406 170.183594 347.324219 170.625 347.6875 C 171.066406 348.046875 171.523438 348.386719 171.996094 348.703125 C 172.46875 349.019531 172.957031 349.3125 173.460938 349.582031 C 173.960938 349.847656 174.476562 350.09375 175 350.308594 C 175.527344 350.527344 176.0625 350.71875 176.609375 350.886719 C 177.152344 351.050781 177.703125 351.1875 178.261719 351.300781 C 178.820312 351.410156 179.382812 351.496094 179.949219 351.550781 C 180.515625 351.605469 181.085938 351.632812 181.65625 351.632812 C 182.222656 351.632812 182.792969 351.605469 183.359375 351.550781 C 183.925781 351.496094 184.488281 351.410156 185.046875 351.300781 C 185.605469 351.1875 186.15625 351.050781 186.699219 350.886719 C 187.246094 350.71875 187.78125 350.527344 188.308594 350.308594 C 188.832031 350.09375 189.347656 349.847656 189.851562 349.582031 C 190.351562 349.3125 190.839844 349.019531 191.3125 348.703125 C 191.785156 348.386719 192.242188 348.046875 192.683594 347.6875 C 193.125 347.324219 193.542969 346.941406 193.945312 346.539062 L 194.171875 346.3125 L 204.175781 351.316406 C 204.597656 351.527344 205.042969 351.632812 205.511719 351.632812 L 217.023438 351.632812 C 218.25 351.632812 219.460938 351.484375 220.648438 351.1875 C 221.839844 350.886719 222.976562 350.449219 224.058594 349.871094 C 225.140625 349.289062 226.136719 348.589844 227.046875 347.765625 C 227.953125 346.9375 228.75 346.015625 229.429688 344.996094 L 234.796875 336.917969 C 235.945312 335.207031 236.816406 333.363281 237.414062 331.390625 C 238.011719 329.417969 238.308594 327.402344 238.304688 325.34375 L 238.304688 323.050781 C 238.304688 322.632812 238.1875 322.230469 238.160156 321.8125 L 240.871094 321.8125 C 242.09375 321.8125 243.300781 321.667969 244.484375 321.371094 C 245.671875 321.074219 246.804688 320.636719 247.882812 320.058594 C 248.964844 319.480469 249.953125 318.777344 250.859375 317.953125 C 251.761719 317.128906 252.554688 316.207031 253.226562 315.183594 L 258.699219 307.074219 C 259.816406 305.351562 260.675781 303.507812 261.265625 301.539062 C 261.855469 299.574219 262.160156 297.5625 262.175781 295.507812 L 262.175781 293.242188 C 262.175781 292.804688 262.042969 292.417969 262.019531 291.988281 L 266.195312 291.988281 C 268.179688 291.992188 270.089844 291.613281 271.921875 290.851562 C 273.753906 290.09375 275.371094 289.007812 276.769531 287.597656 L 281.667969 282.703125 C 283.070312 281.300781 284.152344 279.683594 284.90625 277.851562 C 285.664062 276.019531 286.039062 274.109375 286.03125 272.128906 L 286.03125 269.382812 C 286.03125 268.949219 285.902344 268.5625 285.878906 268.132812 L 287.546875 268.132812 C 288.9375 268.136719 290.304688 267.953125 291.644531 267.578125 C 292.984375 267.199219 294.246094 266.648438 295.429688 265.917969 C 296.613281 265.183594 297.675781 264.304688 298.609375 263.277344 C 299.546875 262.25 300.324219 261.113281 300.945312 259.863281 L 301.707031 258.335938 C 303.195312 255.398438 303.9375 252.28125 303.925781 248.984375 L 303.925781 245.527344 C 303.933594 242.238281 303.191406 239.128906 301.699219 236.199219 L 281.855469 196.4375 L 356.855469 112.054688 C 357.117188 111.757812 357.3125 111.421875 357.441406 111.050781 C 357.570312 110.675781 357.625 110.289062 357.601562 109.894531 C 357.578125 109.5 357.480469 109.125 357.308594 108.769531 C 357.132812 108.414062 356.898438 108.105469 356.605469 107.84375 Z M 44.472656 274.097656 C 42.574219 274.164062 40.691406 274.023438 38.828125 273.667969 C 36.960938 273.3125 35.15625 272.753906 33.417969 271.992188 C 31.679688 271.226562 30.046875 270.28125 28.519531 269.152344 C 26.992188 268.019531 25.613281 266.734375 24.378906 265.292969 L 52.535156 231.503906 L 63.730469 222.558594 L 59.414062 252.808594 C 59.332031 253.382812 59.410156 253.9375 59.652344 254.464844 L 65.492188 267.3125 C 62.3125 269.277344 58.945312 270.832031 55.390625 271.976562 C 51.835938 273.125 48.195312 273.832031 44.472656 274.097656 Z M 102.003906 270.75 L 98.515625 267.261719 C 97.984375 266.730469 97.511719 266.152344 97.09375 265.53125 C 96.675781 264.90625 96.324219 264.25 96.039062 263.554688 C 95.75 262.863281 95.535156 262.148438 95.386719 261.414062 C 95.242188 260.675781 95.167969 259.933594 95.167969 259.183594 C 95.167969 258.433594 95.242188 257.691406 95.386719 256.957031 C 95.535156 256.21875 95.75 255.507812 96.039062 254.8125 C 96.324219 254.121094 96.675781 253.460938 97.09375 252.839844 C 97.511719 252.214844 97.984375 251.640625 98.515625 251.109375 L 112.191406 237.4375 C 113.414062 235.957031 114.875 234.769531 116.578125 233.886719 C 118.285156 233.003906 120.09375 232.488281 122.007812 232.34375 C 122.988281 232.34375 123.957031 232.441406 124.917969 232.632812 C 125.878906 232.820312 126.8125 233.105469 127.714844 233.480469 C 128.621094 233.855469 129.480469 234.3125 130.292969 234.859375 C 131.109375 235.402344 131.859375 236.019531 132.554688 236.710938 C 133.246094 237.402344 133.863281 238.15625 134.40625 238.972656 C 134.953125 239.785156 135.410156 240.644531 135.785156 241.550781 C 136.160156 242.453125 136.441406 243.386719 136.632812 244.347656 C 136.824219 245.308594 136.921875 246.277344 136.921875 247.253906 C 136.777344 249.171875 136.261719 250.980469 135.378906 252.6875 C 134.496094 254.390625 133.308594 255.851562 131.828125 257.074219 L 118.15625 270.75 C 117.613281 271.257812 117.027344 271.710938 116.402344 272.105469 C 115.773438 272.503906 115.113281 272.839844 114.421875 273.113281 C 113.730469 273.386719 113.019531 273.589844 112.289062 273.730469 C 111.558594 273.867188 110.824219 273.9375 110.082031 273.9375 C 109.335938 273.9375 108.601562 273.867188 107.871094 273.730469 C 107.140625 273.589844 106.429688 273.386719 105.738281 273.113281 C 105.046875 272.839844 104.390625 272.503906 103.761719 272.105469 C 103.132812 271.710938 102.546875 271.257812 102.003906 270.75 Z M 125.863281 294.609375 L 122.375 291.117188 C 121.84375 290.589844 121.371094 290.011719 120.953125 289.386719 C 120.535156 288.765625 120.183594 288.105469 119.894531 287.414062 C 119.609375 286.722656 119.390625 286.007812 119.246094 285.269531 C 119.097656 284.535156 119.027344 283.792969 119.027344 283.042969 C 119.027344 282.292969 119.097656 281.550781 119.246094 280.8125 C 119.390625 280.078125 119.609375 279.363281 119.894531 278.671875 C 120.183594 277.980469 120.535156 277.320312 120.953125 276.695312 C 121.371094 276.074219 121.84375 275.496094 122.375 274.964844 L 147.980469 249.367188 C 149.199219 247.882812 150.660156 246.699219 152.367188 245.816406 C 154.070312 244.929688 155.882812 244.417969 157.796875 244.273438 C 158.777344 244.273438 159.746094 244.367188 160.707031 244.558594 C 161.664062 244.75 162.597656 245.035156 163.503906 245.410156 C 164.40625 245.785156 165.265625 246.242188 166.082031 246.785156 C 166.894531 247.332031 167.648438 247.949219 168.339844 248.640625 C 169.03125 249.332031 169.652344 250.085938 170.195312 250.902344 C 170.738281 251.714844 171.199219 252.574219 171.574219 253.476562 C 171.945312 254.382812 172.230469 255.316406 172.421875 256.277344 C 172.613281 257.234375 172.707031 258.207031 172.707031 259.183594 C 172.5625 261.101562 172.050781 262.910156 171.164062 264.613281 C 170.28125 266.320312 169.097656 267.78125 167.613281 269.003906 L 142.015625 294.609375 C 141.472656 295.117188 140.886719 295.566406 140.257812 295.964844 C 139.628906 296.363281 138.972656 296.699219 138.28125 296.96875 C 137.589844 297.242188 136.878906 297.449219 136.148438 297.585938 C 135.417969 297.726562 134.683594 297.796875 133.9375 297.796875 C 133.195312 297.796875 132.460938 297.726562 131.730469 297.585938 C 131 297.449219 130.289062 297.242188 129.597656 296.96875 C 128.90625 296.699219 128.246094 296.363281 127.617188 295.964844 C 126.992188 295.566406 126.40625 295.117188 125.863281 294.609375 Z M 149.71875 318.464844 L 146.230469 314.976562 C 145.699219 314.445312 145.226562 313.871094 144.808594 313.246094 C 144.394531 312.621094 144.042969 311.964844 143.753906 311.269531 C 143.46875 310.578125 143.25 309.863281 143.105469 309.128906 C 142.957031 308.394531 142.882812 307.648438 142.882812 306.898438 C 142.882812 306.148438 142.957031 305.40625 143.105469 304.671875 C 143.25 303.9375 143.46875 303.222656 143.753906 302.527344 C 144.042969 301.835938 144.394531 301.179688 144.808594 300.554688 C 145.226562 299.929688 145.699219 299.355469 146.230469 298.824219 L 159.90625 285.152344 C 161.128906 283.671875 162.589844 282.488281 164.296875 281.601562 C 166 280.71875 167.808594 280.203125 169.726562 280.058594 C 170.703125 280.058594 171.675781 280.15625 172.632812 280.347656 C 173.59375 280.539062 174.527344 280.820312 175.429688 281.195312 C 176.335938 281.570312 177.195312 282.027344 178.007812 282.574219 C 178.824219 283.117188 179.578125 283.734375 180.269531 284.425781 C 180.960938 285.121094 181.578125 285.875 182.125 286.6875 C 182.667969 287.5 183.125 288.359375 183.5 289.265625 C 183.875 290.167969 184.160156 291.101562 184.351562 292.0625 C 184.542969 293.023438 184.636719 293.992188 184.636719 294.972656 C 184.492188 296.886719 183.980469 298.695312 183.09375 300.402344 C 182.210938 302.105469 181.027344 303.570312 179.542969 304.789062 L 165.871094 318.464844 C 165.328125 318.972656 164.746094 319.425781 164.117188 319.824219 C 163.488281 320.21875 162.828125 320.554688 162.136719 320.828125 C 161.445312 321.101562 160.734375 321.308594 160.007812 321.445312 C 159.277344 321.585938 158.539062 321.652344 157.796875 321.652344 C 157.054688 321.652344 156.316406 321.585938 155.585938 321.445312 C 154.855469 321.308594 154.144531 321.101562 153.457031 320.828125 C 152.765625 320.554688 152.105469 320.21875 151.476562 319.824219 C 150.847656 319.425781 150.261719 318.972656 149.71875 318.464844 Z M 189.730469 342.324219 C 189.1875 342.832031 188.601562 343.285156 187.972656 343.679688 C 187.347656 344.078125 186.6875 344.414062 185.996094 344.6875 C 185.304688 344.957031 184.59375 345.164062 183.863281 345.304688 C 183.132812 345.441406 182.398438 345.511719 181.65625 345.511719 C 180.910156 345.511719 180.175781 345.441406 179.445312 345.304688 C 178.714844 345.164062 178.003906 344.957031 177.3125 344.6875 C 176.621094 344.414062 175.960938 344.078125 175.335938 343.679688 C 174.707031 343.285156 174.121094 342.832031 173.578125 342.324219 L 170.089844 338.835938 C 169.558594 338.304688 169.085938 337.726562 168.667969 337.105469 C 168.25 336.480469 167.898438 335.820312 167.613281 335.128906 C 167.324219 334.4375 167.109375 333.722656 166.960938 332.988281 C 166.816406 332.25 166.742188 331.507812 166.742188 330.757812 C 166.742188 330.007812 166.816406 329.265625 166.960938 328.53125 C 167.109375 327.792969 167.324219 327.078125 167.613281 326.386719 C 167.898438 325.695312 168.25 325.035156 168.667969 324.414062 C 169.085938 323.789062 169.558594 323.210938 170.089844 322.683594 L 177.800781 314.976562 C 179.023438 313.492188 180.484375 312.308594 182.1875 311.425781 C 183.894531 310.539062 185.703125 310.027344 187.617188 309.882812 C 188.597656 309.882812 189.566406 309.976562 190.527344 310.167969 C 191.488281 310.359375 192.421875 310.644531 193.324219 311.019531 C 194.230469 311.390625 195.089844 311.851562 195.902344 312.394531 C 196.71875 312.941406 197.46875 313.558594 198.164062 314.25 C 198.855469 314.941406 199.472656 315.695312 200.015625 316.507812 C 200.5625 317.324219 201.019531 318.183594 201.394531 319.085938 C 201.769531 319.992188 202.050781 320.925781 202.242188 321.882812 C 202.433594 322.84375 202.53125 323.816406 202.53125 324.792969 C 202.386719 326.710938 201.871094 328.519531 200.988281 330.222656 C 200.101562 331.929688 198.917969 333.390625 197.4375 334.609375 Z M 189.730469 342.324219 "/></g></g></svg>