<svg xmlns="http://www.w3.org/2000/svg" xmlns:xlink="http://www.w3.org/1999/xlink" width="500" zoomAndPan="magnify" viewBox="0 0 375 374.999991" height="500" preserveAspectRatio="xMidYMid meet" version="1.2"><defs/><g id="3c60eecdea"><g style="fill:#747679;fill-opacity:1;"><g transform="translate(22.230463, 246.35294)"><path style="stroke:none" d="M 51.5625 2.5 C 43.6875 2.5 36.882812 1.722656 31.15625 0.171875 C 25.425781 -1.378906 20.617188 -3.644531 16.734375 -6.625 C 12.859375 -9.601562 9.875 -13.242188 7.78125 -17.546875 C 5.695312 -21.847656 4.414062 -26.679688 3.9375 -32.046875 L 27.390625 -39.03125 C 27.628906 -35.445312 28.34375 -32.3125 29.53125 -29.625 C 30.726562 -26.945312 32.429688 -24.679688 34.640625 -22.828125 C 36.847656 -20.972656 39.441406 -19.628906 42.421875 -18.796875 C 45.410156 -17.960938 48.640625 -17.546875 52.109375 -17.546875 C 56.640625 -17.546875 60.632812 -18.203125 64.09375 -19.515625 C 67.5625 -20.828125 70.304688 -22.828125 72.328125 -25.515625 C 74.359375 -28.203125 75.375 -31.632812 75.375 -35.8125 C 75.375 -41.175781 73.582031 -45.5 70 -48.78125 C 66.425781 -52.070312 61.117188 -54.34375 54.078125 -55.59375 C 47.035156 -56.84375 38.203125 -56.992188 27.578125 -56.046875 L 27.578125 -70.71875 L 66.96875 -96.328125 L 66.96875 -97.765625 L 9.84375 -97.40625 L 9.84375 -118.34375 L 93.28125 -118.34375 L 93.28125 -94.53125 L 55.859375 -69.109375 L 55.859375 -67.5 C 67.203125 -68.09375 76.125 -66.925781 82.625 -64 C 89.132812 -61.082031 93.820312 -57.054688 96.6875 -51.921875 C 99.550781 -46.785156 100.984375 -41.117188 100.984375 -34.921875 C 100.984375 -27.273438 99.191406 -20.644531 95.609375 -15.03125 C 92.023438 -9.425781 86.5625 -5.101562 79.21875 -2.0625 C 71.882812 0.976562 62.664062 2.5 51.5625 2.5 Z M 51.5625 2.5 "/></g></g><g style="fill:#747679;fill-opacity:1;"><g transform="translate(130.01473, 246.35294)"><path style="stroke:none" d="M 58.734375 2.5 C 51.085938 2.5 44.160156 1.128906 37.953125 -1.609375 C 31.742188 -4.359375 26.460938 -8.328125 22.109375 -13.515625 C 17.753906 -18.710938 14.382812 -25.097656 12 -32.671875 C 9.613281 -40.253906 8.421875 -48.878906 8.421875 -58.546875 C 8.421875 -72.148438 10.628906 -83.519531 15.046875 -92.65625 C 19.460938 -101.789062 25.519531 -108.710938 33.21875 -113.421875 C 40.914062 -118.140625 49.65625 -120.5 59.4375 -120.5 C 69.582031 -120.5 78.414062 -118.109375 85.9375 -113.328125 C 93.457031 -108.554688 99.273438 -101.601562 103.390625 -92.46875 C 107.515625 -83.34375 109.578125 -72.210938 109.578125 -59.078125 C 109.578125 -49.296875 108.351562 -40.554688 105.90625 -32.859375 C 103.457031 -25.160156 99.992188 -18.710938 95.515625 -13.515625 C 91.046875 -8.328125 85.707031 -4.359375 79.5 -1.609375 C 73.289062 1.128906 66.367188 2.5 58.734375 2.5 Z M 59.265625 -17.90625 C 62.367188 -17.90625 65.378906 -18.648438 68.296875 -20.140625 C 71.222656 -21.628906 73.847656 -23.957031 76.171875 -27.125 C 78.503906 -30.289062 80.359375 -34.410156 81.734375 -39.484375 C 83.109375 -44.554688 83.796875 -50.789062 83.796875 -58.1875 C 83.796875 -67.144531 82.75 -74.753906 80.65625 -81.015625 C 78.570312 -87.285156 75.707031 -92.03125 72.0625 -95.25 C 68.425781 -98.476562 64.097656 -100.09375 59.078125 -100.09375 C 55.140625 -100.09375 51.257812 -98.804688 47.4375 -96.234375 C 43.625 -93.671875 40.492188 -89.40625 38.046875 -83.4375 C 35.597656 -77.46875 34.375 -69.347656 34.375 -59.078125 C 34.375 -51.796875 35.03125 -45.5625 36.34375 -40.375 C 37.65625 -35.1875 39.472656 -30.945312 41.796875 -27.65625 C 44.128906 -24.375 46.785156 -21.925781 49.765625 -20.3125 C 52.753906 -18.707031 55.921875 -17.90625 59.265625 -17.90625 Z M 59.265625 -17.90625 "/></g></g><g style="fill:#747679;fill-opacity:1;"><g transform="translate(248.004492, 246.35294)"><path style="stroke:none" d="M 11.453125 0 L 11.453125 -127.84375 L 36.703125 -127.84375 L 36.703125 -56.9375 C 40.523438 -59.445312 44.132812 -62.160156 47.53125 -65.078125 C 50.9375 -68.003906 54.039062 -71.078125 56.84375 -74.296875 C 59.65625 -77.523438 62.132812 -80.8125 64.28125 -84.15625 C 66.425781 -87.5 68.21875 -90.78125 69.65625 -94 L 99.1875 -94 C 97.519531 -89.46875 95.222656 -84.898438 92.296875 -80.296875 C 89.367188 -75.703125 85.90625 -71.460938 81.90625 -67.578125 C 77.914062 -63.703125 73.320312 -60.390625 68.125 -57.640625 C 62.9375 -54.898438 57.175781 -52.992188 50.84375 -51.921875 L 50.84375 -49.0625 C 58.84375 -50.375 65.4375 -50.222656 70.625 -48.609375 C 75.820312 -46.992188 80.09375 -44.425781 83.4375 -40.90625 C 86.78125 -37.382812 89.460938 -33.328125 91.484375 -28.734375 C 93.515625 -24.140625 95.304688 -19.457031 96.859375 -14.6875 L 101.15625 0 L 73.046875 0 L 70.71875 -9.3125 C 69.050781 -15.039062 67.257812 -20.050781 65.34375 -24.34375 C 63.4375 -28.644531 60.84375 -32.019531 57.5625 -34.46875 C 54.28125 -36.914062 49.773438 -38.140625 44.046875 -38.140625 L 36.703125 -38.140625 L 36.703125 0 Z M 11.453125 0 "/></g></g></g></svg>